<?xml version="1.0" standalone="no"?>
<svg version="1.0" xmlns="http://www.w3.org/2000/svg"
    width="332.000000pt" height="305.000000pt" viewBox="0 0 332.000000 305.000000"
    preserveAspectRatio="xMidYMid meet">

    <g transform="translate(0.000000,305.000000) scale(0.100000,-0.100000)"
        fill="#000000" stroke="none">
        <path
            d="M1618 2673 c-1 -32 -3 -175 -4 -318 -1 -261 -11 -403 -38 -570 -9
-49 -20 -133 -26 -185 -22 -182 -51 -242 -125 -256 -63 -12 -762 30 -830 50
-53 15 -79 69 -101 206 -8 58 -20 109 -25 115 -19 20 -29 -20 -23 -91 4 -40 3
-106 -1 -148 -5 -62 -12 -83 -33 -108 -23 -27 -26 -40 -28 -122 -1 -50 -9
-124 -18 -164 -9 -40 -16 -85 -16 -98 0 -38 22 -24 40 23 30 81 80 107 90 48
7 -40 24 -38 28 2 2 17 10 37 17 43 18 15 148 15 295 1 58 -6 199 -15 315 -22
204 -11 211 -12 238 -37 31 -29 34 -62 12 -115 -19 -45 -19 -149 -1 -185 7
-15 17 -43 21 -62 4 -19 15 -44 25 -55 24 -26 63 -188 55 -225 -7 -32 -70 -68
-134 -77 -40 -6 -61 -26 -61 -59 0 -12 -10 -33 -21 -48 -30 -39 -14 -73 38
-81 21 -3 65 -19 98 -35 119 -59 272 -62 410 -7 28 11 75 22 105 26 49 5 55 9
58 31 1 14 -6 43 -17 64 -11 21 -18 43 -15 48 13 21 -9 46 -49 57 -68 18 -132
54 -136 76 -8 43 21 186 43 213 31 37 70 167 69 227 -1 28 -8 67 -17 87 -9 21
-16 53 -16 73 0 59 27 65 349 75 152 5 325 12 384 15 122 8 147 -2 147 -56 0
-42 18 -45 26 -3 3 19 13 38 22 41 21 9 72 -51 72 -85 0 -15 7 -36 15 -46 25
-33 29 6 11 112 -9 54 -16 134 -16 179 0 73 -3 85 -26 113 l-27 31 4 157 c4
141 2 157 -13 160 -18 3 -33 -34 -44 -113 -12 -85 -46 -175 -73 -194 -32 -23
-96 -28 -516 -42 l-320 -10 -48 22 c-54 26 -59 37 -77 184 -6 50 -21 153 -33
230 -18 121 -21 197 -25 553 -3 348 -6 412 -18 412 -10 0 -15 -15 -16 -57z"
            fill="red" />
    </g>
</svg>