<?xml version="1.0"?>
<svg width="332" height="305" xmlns="http://www.w3.org/2000/svg" xmlns:svg="http://www.w3.org/2000/svg" preserveAspectRatio="xMidYMid meet" version="1.0">
 <g class="layer">
  <title>Layer 1</title>
  <g fill="#000000" id="svg_1" transform="matrix(1 0 0 1 0 0) translate(37 0) translate(64.8 0.699989) matrix(0.0635412 0 0 -0.0671548 -41.1747 204.352)">
   <path d="m1680.14,2983.5c-0.81,-27.79 -2.42,-151.98 -3.22,-276.18c-0.81,-226.67 -8.87,-350 -30.63,-495.03c-7.25,-42.56 -16.12,-115.51 -20.96,-160.67c-17.73,-158.06 -41.11,-210.17 -100.76,-222.33c-50.78,-10.42 -614.25,26.05 -669.07,43.42c-42.72,13.03 -63.68,59.92 -81.42,178.91c-6.45,50.37 -16.12,94.66 -20.15,99.87c-15.32,17.37 -23.38,-17.37 -18.54,-79.03c3.22,-34.74 2.42,-92.06 -0.81,-128.53c-4.03,-53.85 -9.67,-72.08 -26.6,-93.8c-18.54,-23.45 -20.96,-34.74 -22.57,-105.95c-0.81,-43.42 -7.25,-107.69 -14.51,-142.43c-7.25,-34.74 -12.9,-73.82 -12.9,-85.11c0,-33 17.73,-20.84 32.24,19.97c24.18,70.35 64.49,92.93 72.55,41.69c5.64,-34.74 19.35,-33 22.57,1.74c1.61,14.76 8.06,32.13 13.7,37.34c14.51,13.03 119.3,13.03 237.8,0.87c46.75,-5.21 160.41,-13.03 253.92,-19.11c164.45,-9.55 170.09,-10.42 191.85,-32.13c24.99,-25.19 27.41,-53.85 9.67,-99.87c-15.32,-39.08 -15.32,-129.4 -0.81,-160.67c5.64,-13.03 13.7,-37.34 16.93,-53.85c3.22,-16.5 12.09,-38.21 20.15,-47.77c19.35,-22.58 50.78,-163.27 44.34,-195.41c-5.64,-27.79 -56.43,-59.06 -108.02,-66.87c-32.24,-5.21 -49.17,-22.58 -49.17,-51.24c0,-10.42 -8.06,-28.66 -16.93,-41.69c-24.18,-33.87 -11.29,-63.4 30.63,-70.35c16.93,-2.61 52.4,-16.5 79,-30.4c95.93,-51.24 219.26,-53.85 330.5,-6.08c22.57,9.55 60.46,19.11 84.64,22.58c39.5,4.34 44.34,7.82 46.75,26.92c0.81,12.16 -4.84,37.34 -13.7,55.58c-8.87,18.24 -14.51,37.34 -12.09,41.69c10.48,18.24 -7.25,39.95 -39.5,49.5c-54.82,15.63 -106.41,46.9 -109.63,66c-6.45,37.34 16.93,161.54 34.66,184.99c24.99,32.13 56.43,145.04 55.62,197.14c-0.81,24.32 -6.45,58.19 -13.7,75.56c-7.25,18.24 -12.9,46.03 -12.9,63.4c0,51.24 21.76,56.45 281.33,65.14c122.53,4.34 261.98,10.42 309.54,13.03c98.34,6.95 118.5,-1.74 118.5,-48.63c0,-36.48 14.51,-39.08 20.96,-2.61c2.42,16.5 10.48,33 17.73,35.61c16.93,7.82 58.04,-44.29 58.04,-73.82c0,-13.03 5.64,-31.27 12.09,-39.95c20.15,-28.66 23.38,5.21 8.87,97.27c-7.25,46.9 -12.9,116.38 -12.9,155.46c0,63.4 -2.42,73.82 -20.96,98.14l-21.76,26.92l3.22,136.35c3.22,122.46 1.61,136.35 -10.48,138.96c-14.51,2.61 -26.6,-29.53 -35.47,-98.14c-9.67,-73.82 -37.08,-151.98 -58.85,-168.48c-25.8,-19.97 -77.39,-24.32 -415.95,-36.48l-257.95,-8.68l-38.69,19.11c-43.53,22.58 -47.56,32.13 -62.07,159.8c-4.84,43.42 -16.93,132.88 -26.6,199.75c-14.51,105.09 -16.93,171.09 -20.15,480.27c-2.42,302.23 -4.84,357.81 -14.51,357.81c-8.06,0 -12.09,-13.03 -12.9,-49.5z" fill="red" id="svg_2"/>
  </g>
  <line fill="none" id="svg_6" opacity="0.5" stroke="#000000" stroke-width="5" x1="178.4" x2="178.4" y1="324.2" y2="324.2"/>
  <line fill="none" id="svg_9" stroke="#ffffff" stroke-width="3" x1="168.4" x2="167.4" y1="174.2" y2="433.2"/>
 </g>
</svg>